<?xml version="1.0" encoding="UTF-8" standalone="no"?>
<!DOCTYPE svg PUBLIC "-//W3C//DTD SVG 1.1//EN" "http://www.w3.org/Graphics/SVG/1.1/DTD/svg11.dtd">
<!-- Created with Vectornator (http://vectornator.io/) -->
<svg height="100%" stroke-miterlimit="10" style="fill-rule:nonzero;clip-rule:evenodd;stroke-linecap:round;stroke-linejoin:round;" version="1.1" viewBox="5.83976 24.6629 117.322 40.0342" width="100%" xml:space="preserve" xmlns="http://www.w3.org/2000/svg" xmlns:vectornator="http://vectornator.io" xmlns:xlink="http://www.w3.org/1999/xlink">
<defs/>
<clipPath id="ArtboardFrame">
<rect height="40.0342" width="117.322" x="5.83976" y="24.6629"/>
</clipPath>
<g clip-path="url(#ArtboardFrame)" id="Layer" vectornator:layerName="Layer">
<path d="M45.2618 38.5695C45.4334 38.5915 45.6071 38.5903 45.7783 38.5658L94.4084 31.6144C94.9444 31.5377 95.4231 31.2386 95.727 30.7905L97.9459 27.5179C98.6555 26.4715 100.165 26.3836 100.991 27.3405L110.505 38.3596C111.14 39.0951 112.224 39.2408 113.031 38.699L114.333 37.8245C115.024 37.36 115.338 36.5028 115.109 35.7017L114.506 33.588C114.321 32.9409 114.488 32.2443 114.946 31.7516L116.75 29.8131C117.235 29.2913 117.97 29.081 118.658 29.2668L120.917 29.8767C121.749 30.1014 122.33 30.8533 122.337 31.7157L122.375 36.1905C122.379 36.6669 122.206 37.1279 121.889 37.4839L118.958 40.7791C118.902 40.8414 118.843 40.9 118.78 40.9546L109.596 48.9075C109.455 49.0296 109.297 49.1305 109.127 49.2071L91.6546 57.0736C91.5465 57.1223 91.4341 57.1609 91.319 57.1888L69.698 62.4375C69.615 62.4576 69.5309 62.4722 69.446 62.4811L55.9203 63.9064C55.6526 63.9346 55.382 63.9062 55.1259 63.8231L50.6813 62.9C50.2679 62.7659 46.0334 60.6454 45.7934 60.2831L45.0132 57.2996C45.0132 57.2996 48.1394 53.9199 48.2065 53.8857C48.2737 53.8515 59.5552 50.1817 59.5552 50.1817L73.6342 46.2732C73.6642 46.2649 73.694 46.2558 73.7235 46.246L82.371 43.3865C82.6769 43.2853 82.9524 43.1089 83.1723 42.8735L83.1723 42.8735C84.177 41.7974 83.6482 40.0376 82.2167 39.6936L80.4027 39.2576C80.1604 39.1994 79.9091 39.1888 79.6628 39.2266L49.1545 43.8984C48.8049 43.952 48.4768 44.101 48.2064 44.3291L34.7005 55.7217C34.1072 56.2221 30.9641 56.2141 30.2742 55.8585L24.4859 53.8206C24.2304 53.6889 16.011 47.3494 15.8375 47.1202L8.18342 39.616C7.27595 38.4176 5.75348 34.4585 7.24971 34.3136L13.6684 34.5193C13.8135 34.5052 18.411 35.2186 18.5556 35.2376L28.1097 36.3686L45.2618 38.5695Z" fill="none" opacity="1" stroke="#a7a7a7" stroke-linecap="butt" stroke-linejoin="round" stroke-width="1.56044" vectornator:layerName="Curve 1"/>
</g>
</svg>
