<?xml version="1.0" encoding="UTF-8" standalone="no"?>
<!DOCTYPE svg PUBLIC "-//W3C//DTD SVG 1.1//EN" "http://www.w3.org/Graphics/SVG/1.1/DTD/svg11.dtd">
<!-- Created with Vectornator (http://vectornator.io/) -->
<svg height="100%" stroke-miterlimit="10" style="fill-rule:nonzero;clip-rule:evenodd;stroke-linecap:round;stroke-linejoin:round;" version="1.1" viewBox="2.86562 24.8215 122.611 32.1867" width="100%" xml:space="preserve" xmlns="http://www.w3.org/2000/svg" xmlns:vectornator="http://vectornator.io" xmlns:xlink="http://www.w3.org/1999/xlink">
<defs/>
<clipPath id="ArtboardFrame">
<rect height="32.1867" width="122.611" x="2.86562" y="24.8215"/>
</clipPath>
<g clip-path="url(#ArtboardFrame)" id="Layer" vectornator:layerName="Layer">
<path d="M6.68621 50.3312C6.80249 50.2662 6.93078 50.2256 7.06326 50.2119L46.9097 46.0711L50.6764 45.5131C50.7309 45.505 50.7847 45.4923 50.8371 45.4752L54.351 44.328C54.3702 44.3217 54.3897 44.316 54.4093 44.311L60.198 42.8104C60.6314 42.6981 61.0859 42.8935 61.3026 43.2853L62.0551 44.6459C62.1071 44.7398 62.1741 44.8247 62.2536 44.8969L62.8378 45.4281C63.2148 45.771 63.7916 45.768 64.1651 45.4213L64.1651 45.4213C64.259 45.3343 64.3348 45.2297 64.3885 45.1134L65.0035 43.781C65.0279 43.7282 65.057 43.6776 65.0904 43.6299L67.0255 40.8636C67.158 40.6742 67.3532 40.5376 67.5765 40.478L122.233 25.9003C122.27 25.8903 122.308 25.8825 122.347 25.877L123.513 25.7105C123.96 25.6466 124.394 25.8969 124.562 26.3166L124.626 26.4751C124.672 26.5918 124.696 26.7165 124.696 26.8423L124.687 31.1013L124.596 32.4499C124.562 32.9502 124.157 33.3445 123.656 33.3642L97.2385 34.4014C97.1672 34.4042 97.0964 34.4148 97.0274 34.4329L83.8921 37.8882C83.4827 37.9959 83.1886 38.354 83.1625 38.7765L82.6249 47.4986C82.5956 47.9747 82.2281 48.3607 81.754 48.4133L12.1959 56.1393C11.7317 56.1909 11.2955 55.908 11.1532 55.4631L10.6926 54.0227C10.5852 53.6868 10.3057 53.4344 9.96066 53.3616L6.20637 52.5698C5.31933 52.3827 5.13896 51.1955 5.93039 50.7534L6.68621 50.3312Z" fill="none" opacity="1" stroke="#a7a7a7" stroke-linecap="butt" stroke-linejoin="round" stroke-width="1.56044" vectornator:layerName="Curve 1"/>
</g>
</svg>
