<?xml version="1.0" encoding="UTF-8" standalone="no"?>
<!DOCTYPE svg PUBLIC "-//W3C//DTD SVG 1.1//EN" "http://www.w3.org/Graphics/SVG/1.1/DTD/svg11.dtd">
<!-- Created with Vectornator (http://vectornator.io/) -->
<svg height="100%" stroke-miterlimit="10" style="fill-rule:nonzero;clip-rule:evenodd;stroke-linecap:round;stroke-linejoin:round;" version="1.1" viewBox="3.22367 3.62177 121.652 77.7629" width="100%" xml:space="preserve" xmlns="http://www.w3.org/2000/svg" xmlns:vectornator="http://vectornator.io" xmlns:xlink="http://www.w3.org/1999/xlink">
<defs/>
<g id="Layer-1" vectornator:layerName="Layer 1">
<path d="M49.9374 11.3683C50.2056 11.474 50.4905 11.5308 50.7788 11.5358L54.7172 11.2748C54.9836 11.2795 59.5044 11.7338 59.7548 11.8248L71.8371 16.2141C72.0863 16.3046 77.2101 19.4915 77.4166 19.6577L85.3397 26.9142C85.4796 27.0268 85.6065 27.1546 85.718 27.2954L111.916 60.3678C112.153 60.6671 112.458 60.9058 112.805 61.0643L119.908 64.3039C120.43 64.5418 120.849 64.9577 121.092 65.477L123.023 68.7449C123.156 69.0303 123.862 71.5535 123.877 71.8681L124.093 76.5314C124.153 77.8157 123.282 78.1449 122.2 79.1658L117.727 80.6033C117.362 80.6382 112.975 79.8124 112.632 79.6834L100.056 74.9592C100.023 74.947 99.9906 74.934 99.9585 74.9204L63.9631 59.5879L43.9624 51.0012C43.005 50.5901 42.42 49.6105 42.5122 48.5727L42.7052 46.4009C42.7759 45.6042 42.447 44.8242 41.827 44.3189L41.827 44.3189C41.284 43.8764 40.5755 43.6919 39.8856 43.8134L31.6613 45.2622C31.2753 45.3302 30.8785 45.3031 30.5054 45.1832L18.9342 41.4639C18.8497 41.4367 18.7667 41.4049 18.6857 41.3686L7.37015 36.2954C6.90435 36.0866 6.51687 35.7353 6.26352 35.2922L4.42773 32.081C4.15352 31.6014 4.05238 31.0421 4.14125 30.4968L4.96847 25.4206C5.06392 24.8348 5.37211 24.3049 5.834 23.9322L9.7439 20.7774C9.88814 20.6611 10.0453 20.5617 10.2123 20.4813L12.9004 19.1877C13.6249 18.839 14.4755 18.8745 15.1685 19.2824L18.1469 21.0352C18.3973 21.1826 18.6191 21.3741 18.8014 21.6003L23.4597 27.382C23.7148 27.6985 24.0458 27.9455 24.4219 28.0998L26.6965 29.033C27.3802 29.3134 28.1548 29.2649 28.7981 28.9011L30.638 27.8608C31.1679 27.5612 31.5648 27.0722 31.7491 26.492L33.6495 20.508C33.7419 20.2173 33.7782 19.9117 33.7566 19.6074L33.4814 14.91C33.4658 14.6909 32.9961 10.8562 33.0402 10.6411L32.8041 5.37007C33.6006 3.11304 37.3885 5.44981 38.7573 5.89733L43.228 8.72893C43.2734 8.74377 43.3183 8.75994 43.3627 8.77745L49.9374 11.3683Z" fill="none" opacity="1" stroke="#a7a7a7" stroke-linecap="butt" stroke-linejoin="round" stroke-width="1.56044" vectornator:layerName="Curve 1"/>
</g>
</svg>
