<?xml version="1.0" encoding="utf-8"?>
<!-- Generator: Adobe Illustrator 26.5.0, SVG Export Plug-In . SVG Version: 6.00 Build 0)  -->
<svg version="1.1" id="Layer_1" xmlns:vectornator="http://vectornator.io"
	 xmlns="http://www.w3.org/2000/svg" xmlns:xlink="http://www.w3.org/1999/xlink" x="0px" y="0px" viewBox="0 0 1075 754.4"
	 style="enable-background:new 0 0 1075 754.4;" xml:space="preserve">
<style type="text/css">
	.st0{fill:none;stroke:#A7A7A7;stroke-width:13.4346;stroke-linejoin:round;stroke-miterlimit:85.5805;}
</style>
<path id="path4457" class="st0" d="M592.5,299.1c-41.1,86-81.3,173-125.6,256.9c-8.4,15.9-26.2,21.7-44.3,21.8
	c-22.4,0.2-51.3-1.6-60.7-2.3c-5.6-0.4-10.3,0.6-14.4,2.2c-4.1,1.6-8.7,6.1-11.1,10c-7.1,11.2-8.6,19.8-11.2,29.1
	c-5,18.1-6.9,40.1-10,53.7c-4,17-3.4,23.9-10.5,35.5c-4.3,7.1-10.4,13.2-40.6,26.4c-22.9,10-43,12.6-51,12.2
	c-64.5-3.5-129.7-9.2-190.8-19.3c-12.2-2-13.5-23-5.7-31.9c11.9-13.8,21.4-24.9,34.4-37.6c4.5-4.4,13.1-7.3,18.9-5
	c29,11.3,49.8,21.4,79.9,29.8c4.7,1.3,17.5,0.4,21-3c77.4-74,164.6-159.2,223.8-228.5c57.9-67.7,111.6-151.9,163.1-234.2
	c15.1-24.2,14.2-47.6-10.8-60.1c-16.5-8.2-53.4,0.2-75.1,9.6c-84.2,36.4-162,86.1-243.6,127.8c-5.5,2.8-25,5.1-31.2,4.8
	c-47.2-1.9-61.5-7-67.6-24.7c-10-28.7,22.9-52.9,38.6-59.3C331.7,146,497.3,78.3,662.8,16.4c10.4-3.9,26.1-3.4,36.9-1.6
	c81.4,13.2,146.6,25.9,227,44c11.7,2.6,35.7,15.4,44.6,23.2c31.1,27.4,62.9,50.7,87.8,82.8c5.9,7.6,7.3,20.9,5.5,30.5
	c-8,41.5-20.3,81.5-33.5,120.2c-5.9,17.5-41.4,16-44.8-3.4c-9-50.5-14.9-96.5-22.6-147c-1.7-11-15.9-25.9-26.6-30.1
	c-66.6-26.1-132-47.9-201.1-64.7c-11.5-2.8-34.3-0.9-41.1,12.8C659.3,154.7,628.5,223.9,592.5,299.1L592.5,299.1z"/>
</svg>
