<?xml version="1.0" encoding="UTF-8" standalone="no"?>
<!DOCTYPE svg PUBLIC "-//W3C//DTD SVG 1.1//EN" "http://www.w3.org/Graphics/SVG/1.1/DTD/svg11.dtd">
<!-- Created with Vectornator (http://vectornator.io/) -->
<svg height="100%" stroke-miterlimit="10" style="fill-rule:nonzero;clip-rule:evenodd;stroke-linecap:round;stroke-linejoin:round;" version="1.1" viewBox="0.776039 1.3291 126.197 81.569" width="100%" xml:space="preserve" xmlns="http://www.w3.org/2000/svg" xmlns:vectornator="http://vectornator.io" xmlns:xlink="http://www.w3.org/1999/xlink">
<defs/>
<g id="Layer-1" vectornator:layerName="Layer 1">
<path d="M36.094 72.7455C36.1783 72.6393 36.2458 72.5209 36.2942 72.3942L60.4395 9.16372C60.4722 9.07798 60.5138 8.99587 60.5635 8.91871L63.6346 4.15269C63.8564 3.80853 68.4831 2.14485 68.891 2.1091L71.8168 2.92075C72.3138 2.87719 75.5896 4.957 75.8534 5.38045L76.1896 8.56758C76.4806 9.03463 76.7878 11.2477 76.4545 11.6855L73.5679 13.4223C73.1774 13.9353 69.463 12.6493 68.891 12.3518L66.5093 9.77859C65.5972 9.30411 62.2099 10.6725 62.2694 11.699L64.0426 16.3161C64.0769 16.9095 68.3101 19.2663 68.891 19.3928L73.4538 18.9005C73.6132 18.9353 73.7778 18.9402 73.939 18.9152L94.2534 15.761C94.4356 15.7327 106.678 17.3868 106.856 17.4346L113.033 19.2198C114.19 19.5302 120.58 22.3885 119.526 22.9586L117.253 25.0836C117.079 25.1776 112.345 26.5513 112.148 26.5613L96.3131 26.9987C95.872 27.021 89.5312 25.0836 82.8894 27.719L79.8917 33.9145C79.7376 34.1714 79.675 34.4729 79.7143 34.7699L80.9822 44.3655L84.321 48.2517C88.4563 52.6684 85.1486 57.7989 82.8766 60.0469L77.4369 62.4523C76.6681 62.551 72.1041 60.6586 66.1198 61.9157L66.9241 67.4075C67.0483 67.9876 70.4563 71.4801 71.0484 71.518L112.555 73.1768C113.244 73.2043 113.84 72.6976 113.923 72.0122L114.32 68.7329C114.396 68.1029 116.981 65.28 117.614 65.2352L121.529 65.3837C122.224 65.3344 125.556 68.2569 125.652 68.9473L126.191 72.882C126.252 73.3214 125.313 76.9659 124.981 77.26L120.813 80.9523C120.573 81.1648 120.264 81.2831 119.944 81.2854L4.53295 82.1158C4.32185 82.1173 4.11344 82.0684 3.92509 81.9731L3.92509 81.9731C2.95007 81.4796 2.95804 80.0844 3.93862 79.602L7.81377 77.6959C7.96779 77.6201 8.13507 77.575 8.3063 77.5631L33.092 75.833C33.463 75.8071 33.8061 75.6265 34.0373 75.3353L36.094 72.7455Z" fill="none" opacity="1" stroke="#a7a7a7" stroke-linecap="butt" stroke-linejoin="round" stroke-width="1.56" vectornator:layerName="Curve 1"/>
</g>
</svg>
