<?xml version="1.0" encoding="UTF-8" standalone="no"?>
<!DOCTYPE svg PUBLIC "-//W3C//DTD SVG 1.1//EN" "http://www.w3.org/Graphics/SVG/1.1/DTD/svg11.dtd">
<!-- Created with Vectornator (http://vectornator.io/) -->
<svg height="100%" stroke-miterlimit="10" style="fill-rule:nonzero;clip-rule:evenodd;stroke-linecap:round;stroke-linejoin:round;" version="1.1" viewBox="3.78612 9.03737 124.197 63.4481" width="100%" xml:space="preserve" xmlns="http://www.w3.org/2000/svg" xmlns:vectornator="http://vectornator.io" xmlns:xlink="http://www.w3.org/1999/xlink">
<defs/>
<g id="Layer-1" vectornator:layerName="Layer 1">
<path d="M17.8833 35.8752L69.4311 21.6215C69.498 21.603 69.5637 21.5807 69.6281 21.5548L71.2732 20.8925C71.9402 20.6239 72.7026 20.7681 73.2256 21.2617L73.4137 21.4393C73.6492 21.6616 73.8219 21.942 73.9144 22.2523L74.4558 24.0674C74.4996 24.214 74.5614 24.3547 74.6399 24.486L74.7495 24.6694C74.964 25.0282 75.2941 25.3034 75.6857 25.4497L75.6857 25.4497C76.3244 25.6884 77.0427 25.5548 77.5528 25.1024L79.107 23.7239C79.1154 23.7165 79.1235 23.7088 79.1314 23.7008L82.6969 20.0926C82.7349 20.0541 82.7712 20.014 82.8057 19.9724L85.3565 16.8906C85.5818 16.6184 85.8806 16.4168 86.2173 16.3097L104.918 10.364C105.873 10.0603 106.895 10.5758 107.219 11.524L117.669 42.1182C117.844 42.6307 118.236 43.0401 118.74 43.2378L120.204 43.812C120.32 43.8575 120.441 43.891 120.564 43.9122L122.031 44.1654C122.294 44.2108 122.544 44.3129 122.764 44.4645L123.298 44.8335C123.629 45.0616 123.876 45.3916 124.002 45.7731L125.26 49.5902L125.956 51.9317L127.203 56.5959C127.203 56.5959 126.107 58.5809 126.135 58.5517C126.164 58.5226 124.891 59.8382 124.891 59.8382L122.967 61.1432C122.71 61.3175 122.413 61.424 122.104 61.4529L120.76 61.5785C120.591 61.5942 120.422 61.5867 120.255 61.5561L117.692 61.0845L116.287 60.7246C115.711 60.5772 115.1 60.7163 114.645 61.0983L113.067 62.4232C112.957 62.516 112.858 62.6214 112.772 62.7373L111.824 64.0169C111.574 64.3544 111.216 64.5963 110.809 64.7024L110.239 64.8512C110.119 64.8826 109.996 64.9017 109.872 64.9083L106.872 65.0685C106.811 65.0718 106.751 65.072 106.69 65.0693L103.215 64.9121C103.165 64.9099 103.115 64.9056 103.066 64.8994L100.543 64.5795L98.8494 64.4373C98.5311 64.4106 98.2113 64.4671 97.9214 64.6013L95.914 65.5306C95.7126 65.6238 95.5297 65.7527 95.3741 65.911L93.7375 67.5761C93.7362 67.5774 93.7349 67.5786 93.7336 67.5798L92.1201 68.9748C92.0528 69.033 91.9814 69.0862 91.9064 69.1341L89.7438 70.5146C89.5642 70.6292 89.3661 70.7118 89.1583 70.7587L87.8231 71.0601C87.8231 71.0601 84.9417 71.154 84.999 71.1249C85.0564 71.0957 80.6345 70.9014 80.6345 70.9014L78.0822 70.1089C77.9268 70.0606 77.7784 69.992 77.641 69.9047L73.5874 67.3304C73.553 67.3086 73.5196 67.2854 73.4871 67.261L72.2855 66.356C72.0124 66.1503 71.6874 66.0247 71.347 65.9932L68.661 65.7448L65.0364 65.3809C64.9542 65.3727 64.8727 65.3589 64.7923 65.3397L61.593 64.5753C61.537 64.5619 61.4818 64.546 61.4273 64.5274L58.434 63.5083C58.3736 63.4878 58.3122 63.4703 58.2501 63.4562L57.0853 63.1904C56.722 63.1075 56.342 63.1368 55.9957 63.2744L54.6042 63.827L52.7761 64.5648C52.7045 64.5937 52.6348 64.627 52.5675 64.6646L51.4529 65.287L49.9467 65.9719C49.7049 66.0819 49.442 66.1382 49.1763 66.1371L47.0369 66.1279C47.0369 66.1279 44.9144 65.6825 44.9718 65.6533C45.0291 65.6241 42.9329 66.7217 42.9329 66.7217L41.6743 67.8088C41.609 67.8652 41.5399 67.9169 41.4674 67.9635L39.6463 69.136C39.5672 69.1869 39.4921 69.2439 39.4216 69.3063L38.3085 70.2929C38.2222 70.3694 38.1288 70.4377 38.0297 70.4968L37.0022 71.1091C36.3912 71.4732 35.6252 71.4531 35.0343 71.0573L33.4338 69.9856C33.3431 69.9248 33.258 69.8562 33.1795 69.7804L31.2451 67.9133C31.1915 67.8615 31.1411 67.8066 31.0942 67.7487L28.874 65.0132C28.8464 64.9792 28.82 64.9442 28.7948 64.9082L27.1828 62.6034C27.1544 62.5628 27.1244 62.5234 27.0929 62.4853L25.0267 59.9865L23.3694 57.9587C23.2879 57.8589 23.1962 57.768 23.0957 57.6874L21.9509 56.7692C21.8789 56.7114 21.8026 56.6591 21.7227 56.6128L19.1335 55.1106C19.008 55.0377 18.8743 54.98 18.7352 54.9386L16.6915 54.3295L12.5125 53.0531C12.3416 53.0009 12.1792 52.9241 12.0304 52.8251L9.9039 51.4106L7.8354 50.0343C7.71188 49.9521 7.59873 49.8553 7.49843 49.746L5.95711 48.0659C5.83029 47.9277 5.72533 47.7709 5.64587 47.6009L4.78693 45.7641C4.67672 45.5284 4.61769 45.2721 4.61372 45.0119L4.57348 42.3724C4.5688 42.0655 4.64088 41.7623 4.78318 41.4903L5.72652 39.6875C5.81316 39.5219 5.92448 39.3705 6.05666 39.2384L7.13153 38.1645C7.43736 37.8589 7.84092 37.6706 8.27157 37.6326L10.9669 37.3948L13.6143 37.0524C13.6687 37.0453 13.7228 37.0359 13.7764 37.024L15.7601 36.5845C15.8256 36.57 15.8903 36.5519 15.9539 36.5303L17.8833 35.8752Z" fill="none" opacity="1" stroke="#a7a7a7" stroke-linecap="butt" stroke-linejoin="round" stroke-width="1.56044" vectornator:layerName="Curve 1"/>
</g>
</svg>
