<?xml version="1.0" encoding="UTF-8" standalone="no"?>
<!DOCTYPE svg PUBLIC "-//W3C//DTD SVG 1.1//EN" "http://www.w3.org/Graphics/SVG/1.1/DTD/svg11.dtd">
<!-- Created with Vectornator (http://vectornator.io/) -->
<svg height="100%" stroke-miterlimit="10" style="fill-rule:nonzero;clip-rule:evenodd;stroke-linecap:round;stroke-linejoin:round;" version="1.1" viewBox="1.79458 10.6478 126.411 65.7045" width="100%" xml:space="preserve" xmlns="http://www.w3.org/2000/svg" xmlns:vectornator="http://vectornator.io" xmlns:xlink="http://www.w3.org/1999/xlink">
<defs/>
<g id="Layer-2" vectornator:layerName="Layer 2">
<path d="M7.97418 19.6411L9.47082 17.9326C9.54572 17.8471 9.63074 17.771 9.724 17.706L12.5573 15.731C12.6092 15.7 12.4768 15.7208 12.5242 15.6834L13.9316 14.7311C14.0318 14.6633 14.1404 14.6087 14.2545 14.5688L18.7455 12.9969C18.8148 12.9726 18.8859 12.9538 18.9581 12.9407L24.1749 11.9923C24.2116 11.9856 24.2485 11.9804 24.2857 11.9767L29.6681 11.436C29.7211 11.4306 29.7744 11.4283 29.8277 11.4291L79.9365 12.1177L89.291 12.1724C89.3524 12.1727 89.4136 12.1771 89.4744 12.1855L90.993 12.3947L91.2575 12.4521C91.8005 12.5701 92.2229 12.9973 92.3346 13.5417L92.3471 13.6027L92.6247 14.5293L93.0382 15.6806C93.1182 15.9034 93.2532 16.1024 93.4308 16.2589L95.0265 17.6662L96.3147 18.9806L98.3268 20.9535C98.4082 21.0334 98.4796 21.1228 98.5394 21.2199L99.5621 22.8812C99.6039 22.9491 99.6399 23.0205 99.6696 23.0945L100.335 24.7546L101.029 26.1129L101.904 28.2395C101.929 28.3012 101.95 28.3647 101.967 28.4294L102.598 30.9243C102.621 31.0152 102.635 31.1081 102.639 31.2017L102.708 32.6433C102.71 32.6844 102.71 32.7256 102.709 32.7667L102.506 37.8051C102.503 37.8795 102.494 37.9535 102.479 38.0265L101.988 40.4586L101.488 42.5366C101.488 42.5366 101.049 44.0236 101.082 44.0236C101.116 44.0236 99.5963 46.0077 99.5963 46.0077L98.2105 48.8551C98.2105 48.8551 96.9941 49.9103 96.9601 49.9608C96.9262 50.0113 96.2609 51.0127 96.2609 51.0127L95.7072 51.7798C95.5623 51.9805 95.4731 52.2159 95.4485 52.4622L95.4057 52.8916C95.3824 53.1254 95.4182 53.3614 95.5098 53.5779L95.7972 54.2569C95.9268 54.563 96.1609 54.8133 96.4577 54.963L96.9673 55.22C97.0465 55.26 97.1292 55.2923 97.2144 55.3166L99.4582 55.9566C99.5039 55.9696 99.5503 55.9804 99.5971 55.9887L101.099 56.2561C101.145 56.2644 101.192 56.2751 101.238 56.2882L103.017 56.7959C103.112 56.8228 103.208 56.8397 103.306 56.8464C103.306 56.8464 105.081 57.084 105.577 57.2948L107.78 57.6673C107.825 57.6749 107.87 57.6848 107.914 57.6968L109.369 58.0923C109.369 58.0923 110.972 58.5513 111.006 58.5342C111.039 58.5171 112.77 59.0598 112.821 59.0427C112.871 59.0256 115.587 59.6965 115.587 59.6965L117.38 60.1855L119.298 60.8417C119.516 60.9162 119.712 61.0432 119.869 61.2115L121.096 62.5245C121.138 62.5695 121.177 62.6172 121.213 62.6673L121.977 63.739C122.014 63.7897 122.046 63.8428 122.076 63.8979L122.85 65.3621L124.038 67.337L124.768 68.5011L125.593 69.9808C125.593 69.9808 126.361 71.6926 126.38 71.6728C126.4 71.6529 127.016 72.4646 127.016 72.4646L127.251 73.2109C127.279 73.2989 127.298 73.3893 127.308 73.481L127.345 73.8224C127.395 74.2823 127.216 74.7374 126.865 75.039L126.59 75.2754C126.59 75.2754 125.056 75.4364 125.095 75.3966C125.134 75.3569 124.014 75.572 124.014 75.572L123.646 75.4785C123.208 75.3671 122.851 75.052 122.686 74.6318L121.991 72.8662L121.392 71.1344C121.352 71.0187 121.297 70.9088 121.228 70.8074L120.421 69.6144C120.395 69.5755 120.371 69.5354 120.348 69.494L119.291 67.5334C119.242 67.4412 119.182 67.3548 119.113 67.2759L118.069 66.0809L116.929 64.6453C116.774 64.4503 116.57 64.3 116.338 64.2098L114.823 63.6209L111.483 62.5145L107.796 61.2991L105.48 60.5662C105.434 60.5517 105.389 60.5349 105.345 60.5158L103.324 59.6395L100.818 58.7342L99.2605 58.2931L96.4705 57.727C96.3769 57.7081 96.2817 57.6987 96.1862 57.699L93.1559 57.7102L88.9262 57.6825C88.8655 57.6821 88.8049 57.6777 88.7448 57.6695L86.2121 57.3223C86.1204 57.3097 86.0277 57.3062 85.9353 57.3119L83.7935 57.4436L81.0763 57.4188L79.1516 57.2871L77.9744 57.2861C77.7309 57.2859 77.4916 57.2223 77.28 57.1016L76.6243 56.7276C76.339 56.5648 76.1198 56.3071 76.0049 55.9994L75.7009 55.1854L74.9887 53.4921C74.904 53.2906 74.7733 53.1117 74.6072 52.9696L74.2841 52.6933C73.9862 52.4384 73.5951 52.3198 73.2058 52.3662L72.7285 52.423C72.4171 52.4601 72.1271 52.6004 71.9047 52.8215L71.2704 53.4523C71.2228 53.4996 71.1786 53.5504 71.1382 53.6041L70.4193 54.5604C70.3456 54.6585 70.2593 54.7464 70.1628 54.822L69.3002 55.4976C69.2494 55.5374 69.2015 55.5806 69.1567 55.6269L68.5388 56.2658C68.3081 56.5045 68.0002 56.6536 67.6699 56.6867L63.9648 57.0583C63.8896 57.0658 63.814 57.0673 63.7386 57.0627L61.4993 56.925C61.4625 56.9228 61.4255 56.922 61.3886 56.9226L58.2971 56.9767L56.4269 56.9568L53.6148 56.8956C53.5835 56.8949 51.1705 57.0012 51.1335 56.9999L39.9396 56.4739C39.8729 56.4708 39.8064 56.4629 39.7408 56.4503L38.7994 56.2695C38.3377 56.1808 37.951 55.8668 37.7694 55.4331L37.2194 54.1193L36.3118 51.4142C36.2955 51.3655 36.2819 51.3161 36.271 51.266L35.8772 49.4553L35.3804 47.0699L35.0208 44.4479L34.5739 41.6176C34.5667 41.5722 34.5573 41.5272 34.5457 41.4828L34.0265 39.4888L33.3527 36.7077L32.8845 35.2264L31.8955 32.8417L31.4622 31.5449L30.9689 30.444C30.8926 30.2736 30.783 30.1201 30.6466 29.9926L30.0317 29.4177C29.8045 29.2054 29.5133 29.0744 29.2037 29.0455L28.3061 28.9616C28.2512 28.9564 28.1967 28.9481 28.1429 28.9366L25.9746 28.4723C25.8825 28.4526 25.7887 28.4422 25.6945 28.4413L23.911 28.4237C23.8483 28.4231 23.7857 28.4267 23.7235 28.4345L23.4809 28.4647C23.0437 28.5192 22.6576 28.7757 22.4379 29.1575L21.7269 30.3931L20.8578 31.6557L20.1087 32.8756L19.4544 33.955C19.3976 34.0486 19.352 34.1485 19.3185 34.2526L18.9593 35.3688C18.9352 35.4439 18.9174 35.5209 18.9061 35.5991L18.7365 36.7795C18.6831 37.1508 18.7806 37.528 19.0071 37.827L19.2267 38.1168C19.4888 38.4626 19.8961 38.6678 20.33 38.6726L22.1869 38.6931L24.5497 38.7087L26.3802 38.6901C26.4598 38.6892 26.5394 38.6952 26.618 38.7079L27.9535 38.9232C27.9535 38.9232 29.2151 39.9824 29.2738 39.9625C29.3325 39.9426 30.9442 41.9087 30.9442 41.9087L32.2324 43.4378C32.3065 43.5258 32.3696 43.6227 32.4201 43.7261L32.9077 44.7244C32.9077 44.7244 32.8471 46.2611 32.9253 46.2214C33.0035 46.1816 32.8415 48.0714 32.9198 48.091C32.998 48.1105 32.8044 51.3242 32.863 51.3242C32.9217 51.3242 32.8099 53.6685 32.8099 53.6685L32.3752 55.1935C32.3093 55.425 32.1849 55.6356 32.014 55.8052L30.8024 57.0074C30.8024 57.0074 28.3985 57.6082 28.4767 57.5684C28.555 57.5286 26.4634 57.2512 26.4634 57.2512L21.9453 56.5493L18.903 55.9275C18.8599 55.9187 18.8171 55.9079 18.775 55.895L15.8971 55.0181C15.7757 54.9811 15.6599 54.9279 15.5529 54.8598L13.5312 54.1265C13.4467 54.0728 12.3879 53.4535 12.294 53.4189L11.3231 52.7679C11.1384 52.6999 10.9701 52.5938 10.829 52.4565L8.6771 50.3616C8.6385 50.324 8.60209 50.2842 8.56807 50.2425L6.68407 47.9303C6.63717 47.8728 6.59491 47.8116 6.55768 47.7473L5.01246 45.0803C4.99085 45.043 4.97097 45.0047 4.95288 44.9656L3.67312 42.1971C3.61946 42.081 3.58191 41.9582 3.56152 41.8319L3.23072 39.7832L2.83267 36.2781L2.58681 33.7768C2.57882 33.6956 2.57794 33.6138 2.58416 33.5325L2.80318 30.6693C2.80914 30.5914 2.82159 30.5141 2.84041 30.4383L3.27751 28.6768C3.28717 28.6379 3.29849 28.5994 3.31145 28.5614L4.11157 26.2174L4.95888 24.1379C4.99052 24.0602 5.02905 23.9856 5.07401 23.9148L6.20415 22.1359L8.08256 19.5912" fill="none" opacity="1" stroke="#a7a7a7" stroke-linecap="butt" stroke-linejoin="round" stroke-width="1.56044" vectornator:layerName="Curve 1"/>
</g>
</svg>
