<?xml version="1.0" encoding="UTF-8" standalone="no"?>
<!DOCTYPE svg PUBLIC "-//W3C//DTD SVG 1.1//EN" "http://www.w3.org/Graphics/SVG/1.1/DTD/svg11.dtd">
<!-- Created with Vectornator (http://vectornator.io/) -->
<svg height="100%" stroke-miterlimit="10" style="fill-rule:nonzero;clip-rule:evenodd;stroke-linecap:round;stroke-linejoin:round;" version="1.1" viewBox="3.15841 20.818 123.683 43.364" width="100%" xml:space="preserve" xmlns="http://www.w3.org/2000/svg" xmlns:vectornator="http://vectornator.io" xmlns:xlink="http://www.w3.org/1999/xlink">
<defs/>
<clipPath id="ArtboardFrame">
<rect height="43.364" width="123.683" x="3.15841" y="20.818"/>
</clipPath>
<g clip-path="url(#ArtboardFrame)" id="Layer" vectornator:layerName="Layer">
<path d="M14.974 24.4545L59.7549 21.6664C60.3937 21.6266 60.9733 22.0388 61.1455 22.6552L61.3605 23.4245C61.5201 23.9961 62.0329 24.3975 62.626 24.4153L71.0607 24.6687C71.6181 24.6855 72.129 24.3593 72.3484 23.8466L72.6093 23.237C72.8377 22.7031 73.3808 22.3739 73.9598 22.4182L84.7041 23.241C84.7838 23.2471 84.8639 23.2461 84.9434 23.2381L89.0223 22.8279C89.1954 22.8105 89.3702 22.8266 89.5372 22.8752L106.58 27.8367C106.748 27.8856 106.905 27.9666 107.042 28.0753L120.915 39.0521C121.088 39.1895 121.226 39.3673 121.315 39.5701L125.831 49.8471C125.978 50.1829 125.983 50.5641 125.845 50.9039L125.845 50.9039C125.599 51.5087 124.957 51.8524 124.317 51.7216L122.55 51.3603C122.477 51.3453 122.402 51.3364 122.328 51.3337L109.035 50.8506C108.3 50.8239 107.677 51.3885 107.632 52.123L107.335 56.9697C107.3 57.5379 106.914 58.0238 106.368 58.1865L94.1582 61.8264C94.0803 61.8497 94.0004 61.8658 93.9195 61.8748L83.9811 62.9715C83.7127 63.0011 83.4415 62.9499 83.2023 62.8244L82.5 62.456C81.7746 62.0755 81.5495 61.1437 82.021 60.474L85.8533 55.0311C85.9866 54.8417 86.0692 54.6213 86.0933 54.3909L86.1858 53.5037C86.2652 52.742 85.6987 52.0656 84.9349 52.0102L73.1975 51.1585C73.1975 51.1585 28.1533 51.643 28.211 51.643C28.2688 51.643 27.7351 56.8682 27.7351 56.8682L15.7756 54.4628C14.9774 54.3022 14.2187 54.8761 14.1559 55.6879L13.6991 61.5912C13.6497 62.2302 13.1598 62.7474 12.5244 62.8313L9.70163 63.2042C8.90238 63.3097 8.18802 62.699 8.16807 61.893L7.84061 48.6637C7.82853 48.1754 7.55482 47.7313 7.12404 47.501L5.07918 46.408C4.44067 46.0668 4.18276 45.2842 4.49325 44.6301L6.65953 40.067C6.73771 39.9023 6.7819 39.7236 6.78944 39.5414L7.34175 26.1995C7.37051 25.5046 7.92021 24.9441 8.6144 24.9018L15.6725 24.4715" fill="none" opacity="1" stroke="#a7a7a7" stroke-linecap="butt" stroke-linejoin="round" stroke-width="1.56044" vectornator:layerName="Curve 1"/>
</g>
</svg>
