<?xml version="1.0" encoding="UTF-8" standalone="no"?>
<!DOCTYPE svg PUBLIC "-//W3C//DTD SVG 1.1//EN" "http://www.w3.org/Graphics/SVG/1.1/DTD/svg11.dtd">
<!-- Created with Vectornator (http://vectornator.io/) -->
<svg height="100%" stroke-miterlimit="10" style="fill-rule:nonzero;clip-rule:evenodd;stroke-linecap:round;stroke-linejoin:round;" version="1.1" viewBox="13.8631 2.77661 105.463 79.4468" width="100%" xml:space="preserve" xmlns="http://www.w3.org/2000/svg" xmlns:vectornator="http://vectornator.io" xmlns:xlink="http://www.w3.org/1999/xlink">
<defs/>
<clipPath id="ArtboardFrame">
<rect height="79.4468" width="105.463" x="13.8631" y="2.77661"/>
</clipPath>
<g clip-path="url(#ArtboardFrame)" id="Layer" vectornator:layerName="Layer">
<path d="M17.9883 13.5023C18.0819 13.4775 18.1711 13.4382 18.2525 13.3858L24.428 9.40547C24.4934 9.36333 24.5638 9.32964 24.6377 9.30518L35.5277 5.69843C35.5723 5.68365 35.618 5.6723 35.6644 5.66449L48.085 3.57104C48.1419 3.56144 48.1996 3.55721 48.2574 3.55841L55.8209 3.71494C55.873 3.71602 55.9249 3.72152 55.9761 3.73138L62.1203 4.9145C62.1614 4.92242 62.203 4.92753 62.2448 4.92979L66.1647 5.14208C66.2256 5.14537 66.2859 5.15468 66.3449 5.16988L67.7787 5.53919C68.0471 5.60832 68.2701 5.79447 68.3862 6.04614L69.2579 7.93707C69.2988 8.02575 69.3253 8.12035 69.3365 8.21734L69.8343 12.5264C69.8394 12.5709 69.8478 12.6149 69.8593 12.6581L74.1355 28.7018C74.1488 28.7518 74.1579 28.8029 74.1627 28.8545L74.6989 34.6611C74.7083 34.7632 74.7347 34.863 74.7769 34.9564L78.8196 43.8931C78.8419 43.9423 78.8598 43.9934 78.8731 44.0457L82.0156 56.389C82.0594 56.5609 82.1518 56.7166 82.2819 56.8373L85.6888 60.0002C85.8305 60.1317 86.0099 60.2154 86.2017 60.2394L91.1852 60.8636C91.4636 60.8985 91.7427 60.8047 91.9436 60.6088L96.9691 55.708C97.035 55.6437 97.1102 55.5897 97.1921 55.5476L98.6438 54.8032C98.9051 54.6692 99.2145 54.6677 99.4772 54.799L101.173 55.6476C101.219 55.6704 101.263 55.697 101.304 55.7271L107.733 60.4123L117.942 67.6626C118.295 67.9132 118.426 68.3754 118.258 68.7739L117.896 69.6296C117.816 69.8183 117.675 69.9751 117.496 70.0751L116.162 70.821C116.038 70.89 115.901 70.9297 115.76 70.937L113.872 71.0352C113.685 71.0449 113.506 71.1112 113.358 71.2253L111.705 72.497L110.024 73.7261L108.651 74.9283C108.232 75.2949 108.23 75.9463 108.648 76.3143L108.648 76.3143C108.922 76.5553 109.312 76.6125 109.643 76.4602L110.433 76.097L112.362 75.1872L114.241 74.36C114.376 74.3009 114.522 74.2747 114.669 74.2835L115.995 74.3636C116.346 74.3848 116.654 74.6035 116.79 74.9276L117.553 76.7468C117.582 76.817 117.603 76.8906 117.614 76.9658L118.079 80.0457C118.132 80.3986 117.977 80.7506 117.68 80.9493L117.18 81.2845C117.026 81.388 116.844 81.4424 116.658 81.4406L105.365 81.3295C105.284 81.3287 105.203 81.317 105.124 81.2948L96.1874 78.7716C96.1426 78.7589 96.099 78.743 96.0567 78.7238L86.7608 74.5026C86.604 74.4314 86.4704 74.3178 86.3748 74.1746L78.9456 63.036C78.9007 62.9687 78.8649 62.8958 78.839 62.8192L71.9374 42.3691C71.9271 42.3386 71.9184 42.3076 71.9113 42.2762L71.5405 40.6245C71.4564 40.2498 71.1489 39.9665 70.7686 39.9132L70.2688 39.8432C69.8938 39.7907 69.5891 39.5144 69.5003 39.1463L69.2006 37.9049C69.1531 37.7081 69.1717 37.501 69.2535 37.3158L69.6926 36.3222C69.7656 36.157 69.7885 35.9739 69.7584 35.7957L65.8686 12.7908C65.8186 12.4951 65.6279 12.2422 65.3574 12.1128L59.5336 9.32585C59.4145 9.26885 59.2845 9.23809 59.1525 9.23567L50.2503 9.07218C50.2036 9.07132 50.1569 9.07401 50.1106 9.08022L48.4496 9.30323C48.1954 9.33736 47.9669 9.47584 47.8189 9.6854L46.5531 11.4786C46.4202 11.6669 46.2216 11.7986 45.9965 11.8478L35.3169 14.18C35.0131 14.2463 34.6964 14.1551 34.4744 13.9374L32.7177 12.2147C32.4999 12.0012 32.1907 11.9091 31.8916 11.9688L30.0342 12.3394C29.9635 12.3535 29.8948 12.3758 29.8294 12.4059L24.4042 14.9003C24.3076 14.9447 24.2194 15.0055 24.1435 15.08L20.2803 18.8718C20.2524 18.8992 20.2263 18.9283 20.2022 18.9589L17.4221 22.4843C16.981 23.0437 16.0994 22.9131 15.8394 22.2499L14.7092 19.3669C14.6655 19.2555 14.644 19.1366 14.6457 19.017L14.7027 15.0665C14.7087 14.6529 14.9895 14.2938 15.3895 14.1882L17.9883 13.5023Z" fill="none" opacity="1" stroke="#a7a7a7" stroke-linecap="butt" stroke-linejoin="round" stroke-width="1.56" vectornator:layerName="Curve 1"/>
</g>
</svg>
