<?xml version="1.0" encoding="UTF-8" standalone="no"?>
<!DOCTYPE svg PUBLIC "-//W3C//DTD SVG 1.1//EN" "http://www.w3.org/Graphics/SVG/1.1/DTD/svg11.dtd">
<!-- Created with Vectornator (http://vectornator.io/) -->
<svg height="100%" stroke-miterlimit="10" style="fill-rule:nonzero;clip-rule:evenodd;stroke-linecap:round;stroke-linejoin:round;" version="1.1" viewBox="35.5699 2.74453 47.4455 79.4292" width="100%" xml:space="preserve" xmlns="http://www.w3.org/2000/svg" xmlns:vectornator="http://vectornator.io" xmlns:xlink="http://www.w3.org/1999/xlink">
<defs/>
<clipPath id="ArtboardFrame">
<rect height="79.4292" width="47.4455" x="35.5699" y="2.74453"/>
</clipPath>
<g clip-path="url(#ArtboardFrame)" id="Layer" vectornator:layerName="Layer">
<path d="M48.1996 45.7728C48.2211 45.7589 48.2424 45.7446 48.2633 45.7297L69.6589 30.5623C70.1012 30.2487 70.37 29.7451 70.3843 29.2031L70.545 23.1135C70.5489 22.9661 70.5338 22.8187 70.5001 22.6751L66.5819 5.96164C66.3562 4.99916 66.9855 4.04476 67.9591 3.87303L68.5268 3.77288C69.3425 3.62899 70.145 4.08625 70.4371 4.8613L70.6799 5.50562C71.0755 6.5553 72.3532 6.95246 73.2741 6.31202L73.9957 5.81025C74.2723 5.61787 74.5994 5.51089 74.9362 5.50258L78.8859 5.4051C79.1658 5.39819 79.4432 5.45964 79.694 5.58414L80.5277 5.99804C81.4414 6.45157 81.7626 7.59545 81.2188 8.45834L80.7031 9.27658C80.4261 9.71602 79.9655 10.0069 79.4497 10.0683L76.0719 10.4699C75.2119 10.5721 74.5617 11.2972 74.5535 12.1632L74.5166 16.0288C74.509 16.819 75.0404 17.513 75.8054 17.7117L77.8259 18.2366C78.5714 18.4302 79.0976 19.0954 79.1144 19.8655L79.7637 49.5957C79.7869 50.6569 78.8535 51.4862 77.8024 51.3383L77.1735 51.2498C76.1781 51.1097 75.2749 51.8485 75.2149 52.852L74.7758 60.1943C74.7458 60.6959 74.4981 61.1594 74.0978 61.4632L49.3192 80.2629C48.5169 80.8716 47.3657 80.6648 46.8255 79.8149L41.9353 72.123C41.7974 71.906 41.7098 71.6609 41.679 71.4057L40.4653 61.3591C40.4457 61.1968 40.4031 61.0381 40.3387 60.8877L36.8571 52.7589C36.5565 52.057 36.754 51.241 37.3424 50.7543L39.48 48.9859C40.0599 48.5062 40.8842 48.4587 41.5153 48.8686L41.5153 48.8686C42.0836 49.2376 42.8154 49.239 43.3851 48.8723L48.1996 45.7728Z" fill="none" opacity="1" stroke="#a7a7a7" stroke-linecap="butt" stroke-linejoin="round" stroke-width="1.56044" vectornator:layerName="Curve 1"/>
</g>
</svg>
